<svg width="196" height="108" viewBox="0 0 196 108" fill="none" xmlns="http://www.w3.org/2000/svg">
<path fill-rule="evenodd" clip-rule="evenodd" d="M185.441 28.6443C185.441 28.6443 185.725 31.377 185.684 32.2202C185.644 33.0629 184.589 33.2634 183.656 33.5842C182.723 33.9056 182.195 36.8273 182.195 36.8273C182.195 36.8273 180.856 45.2952 180.613 46.0176C180.37 46.7399 178.463 48.1367 178.463 48.1367L176.978 58.5448C170.541 79.6693 160.958 85.7548 147.961 87.5489C134.963 89.3429 123.175 81.5683 115.619 71.1032C108.062 60.6381 108.667 35.2221 108.667 35.2221C139.195 7.41428 185.441 28.6443 185.441 28.6443ZM176.252 32.8307C176.252 32.8307 172.739 22.726 143.268 23.7481C113.798 24.7707 111.078 43.4964 111.078 43.4964C111.078 43.4964 105.637 77.2843 142.021 85.806C142.021 85.806 157.664 87.1151 165.598 75.5656C173.532 64.0167 175.233 56.1677 175.233 56.1677C175.233 56.1677 177.5 49.44 176.933 41.2543C176.366 33.0692 176.252 32.8307 176.252 32.8307ZM87.7598 38.1881C87.7598 38.1881 98.3333 31.1523 108.297 38.1881L108.26 40.1067C108.26 40.1067 97.6321 33.8987 87.7219 40.1067L87.7598 38.1881ZM10.7432 28.6443C10.7432 28.6443 56.9891 7.41428 87.5177 35.2221C87.5177 35.2221 88.1221 60.6381 80.5655 71.1032C73.0088 81.5683 61.2206 89.3429 48.2236 87.5489C35.226 85.7548 25.6439 79.6693 19.2063 58.5448L17.7211 48.1367C17.7211 48.1367 15.8143 46.7399 15.5712 46.0176C15.3275 45.2952 13.9888 36.8273 13.9888 36.8273C13.9888 36.8273 13.4613 33.9056 12.5282 33.5842C11.5951 33.2634 10.5407 33.0629 10.5001 32.2202C10.4595 31.377 10.7432 28.6443 10.7432 28.6443ZM19.9315 32.8307C19.9315 32.8307 19.8182 33.0692 19.2512 41.2543C18.6847 49.44 20.9517 56.1677 20.9517 56.1677C20.9517 56.1677 22.6517 64.0167 30.5862 75.5656C38.5207 87.1151 54.1626 85.806 54.1626 85.806C90.5473 77.2843 85.107 43.4964 85.107 43.4964C85.107 43.4964 82.3862 24.7707 52.9158 23.7481C23.4453 22.726 19.9315 32.8307 19.9315 32.8307Z" fill="#0E203E" stroke="#0E203E" stroke-width="6.1865" stroke-miterlimit="1.5" stroke-linecap="round" stroke-linejoin="round"/>
</svg>
