<?xml version="1.0" encoding="UTF-8" standalone="no"?>
<!DOCTYPE svg PUBLIC "-//W3C//DTD SVG 1.1//EN" "http://www.w3.org/Graphics/SVG/1.1/DTD/svg11.dtd">
<svg width="100%" height="100%" viewBox="0 0 244 237" version="1.1" xmlns="http://www.w3.org/2000/svg" xmlns:xlink="http://www.w3.org/1999/xlink" xml:space="preserve" xmlns:serif="http://www.serif.com/" style="fill-rule:evenodd;clip-rule:evenodd;stroke-linecap:round;stroke-linejoin:round;stroke-miterlimit:1.5;">
    <g transform="matrix(1,0,0,1,-62.1691,-53.9603)">
        <g id="avatar">
            <g transform="matrix(1,0,0,1,18.8123,16.085)">
                <path d="M219.123,238.284C276.3,275.206 287.267,268.26 287.267,268.26C287.267,268.26 251.441,227.362 258.387,156.785C267.108,68.165 161.946,201.361 219.123,238.284Z" style="fill:rgb(12,9,5);"/>
            </g>
            <g transform="matrix(1,0,0,0.968456,0,8.9983)">
                <path d="M137.265,86.542C151.525,70.578 241.891,20.659 265.821,121.654C290.221,224.629 209.597,276.605 204.977,271.511C204.977,271.511 135.939,276.347 126.516,161.139C126.516,161.139 123.006,102.506 137.265,86.542Z" style="fill:rgb(215,183,112);"/>
            </g>
            <path d="M184.361,115.529C184.361,115.529 249.089,93.028 259.384,117.828C269.678,142.628 237.625,78.054 237.625,78.054L180.07,85.541L184.361,115.529Z" style="fill:rgb(12,9,5);"/>
            <g transform="matrix(1,0,0,1,-2.01207,-4.2038)">
                <path d="M142.213,90.284L185.436,121.763C185.436,121.763 165.176,185.694 137.874,173.418C137.874,173.418 133.196,253.044 192.512,294.599C192.512,294.599 61.13,243.777 64.755,222.936C68.379,202.096 89.114,88.13 142.213,90.284Z" style="fill:rgb(12,9,5);stroke:rgb(12,9,5);stroke-width:1px;"/>
            </g>
            <path d="M135.884,169.724C135.884,169.724 119.799,147.116 112.487,162.909C105.176,178.702 130.688,217.41 139.517,207.228C148.347,197.046 135.884,169.724 135.884,169.724Z" style="fill:rgb(215,183,112);"/>
            <path id="ear-shadow" serif:id="ear shadow" d="M126.933,167.086C126.933,167.086 123.255,159.535 118.847,162.889C114.439,166.243 113.385,185.985 129.58,196.814C129.58,196.814 118.796,186.184 119.69,170.644C120.223,161.379 126.933,167.086 126.933,167.086Z" style="fill:rgb(123,98,43);"/>
            <g transform="matrix(1,0,0,1.74638,7.25289,-163.799)">
                <path d="M194.252,188.786C188.707,182.573 159.813,185.832 159.813,185.832C164.679,181.152 191.445,179.013 194.252,188.786"/>
            </g>
            <g transform="matrix(-0.998762,-0.0497443,-0.0868727,1.74422,446.169,-153.728)">
                <path d="M194.252,188.786C188.707,182.573 159.813,185.832 159.813,185.832C164.679,181.152 191.445,179.013 194.252,188.786"/>
            </g>
            <g transform="matrix(1,0,0,1.74638,6.95597,-145.204)">
                <path d="M194.252,188.786C192.831,187.194 186.856,182.923 183.247,182.361C172.774,180.729 158.482,185.311 159.813,185.832C160.455,186.083 173.373,182.858 180.107,183.408C187.324,183.997 188.932,187.252 194.252,188.786" style="fill:rgb(12,9,5);"/>
            </g>
            <path d="M232.561,218.16C230.043,222.267 222.517,221.574 217.454,222.246C217.454,222.246 232.138,224.897 232.561,218.16" style="fill:rgb(123,98,43);"/>
            <g transform="matrix(-1.22566,0.201829,-0.247295,-1.50177,477.714,482.499)">
                <path d="M194.252,188.786C192.831,187.194 186.856,182.923 183.247,182.361C172.774,180.729 171.196,184.049 170.632,184.399C170.068,184.748 173.128,183.907 179.862,184.457C187.079,185.046 193.466,188.314 194.252,188.786" style="fill:rgb(109,38,0);"/>
            </g>
            <g transform="matrix(1,0,0,1,0.0533407,-5.76961)">
                <ellipse cx="186.137" cy="184.342" rx="6.207" ry="4.748" style="fill:rgb(12,9,5);"/>
            </g>
            <g transform="matrix(-1,0,0,1.74638,430.073,-144.037)">
                <path d="M194.252,188.786C192.831,187.194 186.856,182.923 183.247,182.361C172.774,180.729 162.092,184.878 163.423,185.398C164.066,185.65 173.373,182.858 180.107,183.408C187.324,183.997 188.932,187.252 194.252,188.786" style="fill:rgb(12,9,5);"/>
            </g>
            <g transform="matrix(-1,0,0,1,436.976,-4.60222)">
                <ellipse cx="186.137" cy="184.342" rx="6.207" ry="4.748" style="fill:rgb(12,9,5);"/>
            </g>
            <g id="glasses" transform="matrix(0.478864,0,0,0.47281,27.9269,-59.1668)">
                <g transform="matrix(0.795066,0,0,0.796578,196.025,135.284)">
                    <path d="M231.956,458.459C231.956,458.459 255.276,442.773 277.254,458.459L277.17,462.738C277.17,462.738 253.73,448.896 231.872,462.738L231.956,458.459Z" style="fill:rgb(110,110,110);stroke:rgb(110,110,110);stroke-opacity:0.34;stroke-width:2.64px;"/>
                </g>
                <g transform="matrix(0.795066,0,0,0.796578,196.025,135.284)">
                    <path d="M62.088,437.18C62.088,437.18 164.088,389.847 231.421,451.847C231.421,451.847 232.755,508.514 216.088,531.847C199.421,555.18 173.421,572.513 144.755,568.513C116.088,564.513 94.953,550.946 80.755,503.847L77.479,480.641C77.479,480.641 73.273,477.526 72.737,475.916C72.2,474.305 69.247,455.425 69.247,455.425C69.247,455.425 68.084,448.911 66.026,448.195C63.968,447.479 61.641,447.032 61.552,445.153C61.462,443.274 62.088,437.18 62.088,437.18ZM82.354,446.515C82.354,446.515 82.104,447.046 80.854,465.296C79.604,483.546 84.604,498.546 84.604,498.546C84.604,498.546 88.354,516.046 105.854,541.796C123.354,567.546 157.854,564.628 157.854,564.628C238.104,545.628 226.104,470.294 226.104,470.294C226.104,470.294 220.104,428.544 155.104,426.265C90.104,423.985 82.354,446.515 82.354,446.515Z" style="fill:white;stroke:white;stroke-width:2.64px;"/>
                </g>
                <g transform="matrix(-0.795066,0,0,0.796578,601.103,135.284)">
                    <path d="M62.088,437.18C62.088,437.18 164.088,389.847 231.421,451.847C231.421,451.847 232.755,508.514 216.088,531.847C199.421,555.18 173.421,572.513 144.755,568.513C116.088,564.513 94.953,550.946 80.755,503.847L77.479,480.641C77.479,480.641 73.273,477.526 72.737,475.916C72.2,474.305 69.247,455.425 69.247,455.425C69.247,455.425 68.084,448.911 66.026,448.195C63.968,447.479 61.641,447.032 61.552,445.153C61.462,443.274 62.088,437.18 62.088,437.18ZM82.354,446.515C82.354,446.515 82.104,447.046 80.854,465.296C79.604,483.546 84.604,498.546 84.604,498.546C84.604,498.546 88.354,516.046 105.854,541.796C123.354,567.546 157.854,564.628 157.854,564.628C238.104,545.628 226.104,470.294 226.104,470.294C226.104,470.294 220.104,428.544 155.104,426.265C90.104,423.985 82.354,446.515 82.354,446.515Z" style="fill:white;stroke:white;stroke-width:2.64px;"/>
                </g>
            </g>
            <path d="M139.517,85.596L184.461,116.621C184.461,116.621 211.78,67.99 237.587,88.867C263.393,109.744 264.122,185.846 281.66,188.613C281.66,188.613 299.286,190.976 298.715,178.244C298.715,178.244 295.757,188.288 283.695,180.17C271.633,172.051 290.683,125.484 226.892,59.447C226.892,59.447 150.692,36.757 139.517,83.659" style="fill:rgb(17,11,5);"/>
        </g>
    </g>
</svg>
